<svg version="1.1" id="Layer_1" xmlns="http://www.w3.org/2000/svg" xmlns:xlink="http://www.w3.org/1999/xlink" x="0px" y="0px"
	 width="100%" viewBox="0 0 1080 1080" enable-background="new 0 0 1080 1080" xml:space="preserve">
<path fill="#000000" opacity="1.000000" stroke="none" 
	d="
M1081.000000,408.000000 
	C1081.000000,632.640747 1081.000000,856.781494 1081.000000,1080.961182 
	C721.067566,1080.961182 361.135101,1080.961182 1.101323,1080.961182 
	C1.101323,721.109192 1.101323,361.218353 1.101323,1.163765 
	C360.999939,1.163765 720.999939,1.163765 1081.000000,1.163765 
	C1081.000000,136.531693 1081.000000,272.015839 1081.000000,408.000000 
M959.549683,763.954651 
	C960.697327,763.623108 961.845032,763.291565 963.481323,762.865662 
	C963.481323,762.865662 963.819519,762.500549 964.549500,762.553345 
	C968.545105,759.976318 972.540649,757.399292 977.110718,754.449768 
	C979.136475,752.384766 981.162231,750.319824 983.792236,748.138062 
	C984.327759,747.356628 984.863281,746.575195 985.825439,745.338806 
	C986.189087,744.832703 986.552795,744.326599 987.572754,743.734253 
	C990.151794,736.689209 993.981262,729.818970 994.996765,722.555359 
	C996.298706,713.243408 995.389832,703.614319 995.281067,694.123657 
	C995.268005,692.984924 994.302734,691.857117 993.269531,690.494751 
	C992.903809,690.540222 992.538025,690.585754 991.274963,690.271729 
	C990.109802,690.242676 988.944580,690.188171 987.779419,690.188171 
	C690.100098,690.184448 392.420807,690.183716 94.741501,690.202820 
	C93.099571,690.202881 91.457664,690.481750 89.273529,690.482910 
	C88.916550,690.566223 88.559570,690.649536 87.734222,690.522766 
	C87.514046,691.344299 87.293877,692.165771 86.997765,693.745911 
	C87.048981,694.504578 87.100189,695.263184 86.747574,696.722229 
	C86.720787,704.643555 86.604408,712.565796 86.691277,720.485901 
	C86.786880,729.202454 89.851791,736.911865 95.439896,744.331604 
	C95.830948,744.822998 96.222008,745.314331 96.593727,746.440674 
	C102.527710,753.495422 108.858170,760.017334 118.522812,762.868103 
	C118.522812,762.868103 119.006325,762.959656 119.478180,763.537598 
	C120.706680,763.588928 121.935173,763.640259 123.241219,763.855286 
	C123.241219,763.855286 123.399567,763.767334 123.488647,764.394104 
	C125.971466,764.802917 128.454285,765.211731 131.862671,765.765686 
	C133.195343,765.779602 134.528000,765.805725 135.860672,765.805725 
	C405.929504,765.807617 675.998352,765.807922 946.067200,765.799866 
	C947.729309,765.799805 949.391479,765.682922 951.594238,766.023010 
	C953.933716,765.269775 956.273193,764.516479 958.766541,763.852661 
	C958.766541,763.852661 958.839905,763.690552 959.549683,763.954651 
M362.983063,888.972656 
	C362.983063,888.972656 362.898987,888.872742 362.271698,889.112427 
	C356.916229,895.585876 357.100098,903.318909 357.002747,911.835632 
	C358.766479,912.555237 360.529724,913.903503 362.294006,913.904907 
	C476.380585,913.992493 590.467224,913.970825 704.553894,913.959290 
	C718.169067,913.957947 718.169067,913.959106 717.592773,899.583679 
	C717.162048,898.589600 716.731323,897.595459 716.073242,895.991516 
	C715.435608,894.627136 714.797974,893.262756 714.249573,891.268982 
	C713.697815,890.653564 713.145996,890.038086 712.303955,888.819580 
	C709.067200,886.305176 705.830444,883.790771 702.225708,880.779663 
	C701.466187,880.561340 700.706665,880.343079 699.608398,879.679993 
	C699.260498,879.566467 698.912659,879.452942 698.033325,878.754578 
	C696.712402,878.637512 695.391479,878.418091 694.070557,878.417847 
	C589.761169,878.398987 485.451813,878.393311 381.142426,878.433228 
	C379.572662,878.433838 378.003082,879.017578 375.877258,879.389954 
	C375.598663,879.625732 375.320068,879.861450 374.435669,879.960632 
	C373.754974,880.396484 373.074280,880.832336 371.692078,881.249939 
	C369.425171,883.095215 367.158264,884.940491 364.290527,886.958618 
	C363.817596,887.607178 363.344666,888.255798 362.983063,888.972656 
M91.905937,669.949768 
	C92.572090,669.966003 93.238243,669.996460 93.904404,669.996460 
	C392.667938,669.998962 691.431458,669.981750 990.194946,670.128540 
	C996.056458,670.131409 996.047546,667.371399 996.046692,663.132019 
	C996.012939,493.338440 996.046082,323.544861 996.058777,153.751297 
	C996.060669,128.566711 973.514160,105.984451 948.386353,105.983986 
	C854.908203,105.982239 761.430054,105.992424 667.951904,106.010223 
	C665.957031,106.010605 663.962158,106.156410 661.048584,106.046227 
	C659.549377,106.031143 658.050110,106.003090 656.550903,106.002815 
	C482.948151,105.971062 309.345398,105.938553 135.742645,105.914452 
	C108.292870,105.910645 85.975090,128.884598 85.974525,157.034760 
	C85.971169,324.139526 85.953842,491.244293 85.941238,658.349060 
	C85.940956,662.147522 85.941200,665.945923 85.941200,670.014465 
	C88.030380,669.917358 89.505020,669.848755 91.905937,669.949768 
M609.239197,840.496399 
	C609.240051,824.182617 609.114990,807.867126 609.335205,791.556335 
	C609.386719,787.741028 608.284180,786.840149 604.568542,786.851624 
	C562.119751,786.982605 519.670349,786.972473 477.221497,786.862793 
	C473.797180,786.853943 472.638641,787.620422 472.670227,791.266174 
	C472.848969,811.906616 472.846191,832.550110 472.668793,853.190552 
	C472.637848,856.792358 473.709198,857.661072 477.182709,857.639587 
	C500.653717,857.494202 524.126038,857.560181 547.597900,857.560303 
	C566.741638,857.560364 585.885925,857.492065 605.028564,857.635376 
	C608.260010,857.659485 609.555481,856.886597 609.312927,853.474609 
	C609.030334,849.499268 609.241882,845.488831 609.239197,840.496399 
z"/>
<path fill="#00B8F0" opacity="1.000000" stroke="none" 
	d="
M661.967285,106.234375 
	C663.962158,106.156410 665.957031,106.010605 667.951904,106.010223 
	C761.430054,105.992424 854.908203,105.982239 948.386353,105.983986 
	C973.514160,105.984451 996.060669,128.566711 996.058777,153.751297 
	C996.046082,323.544861 996.012939,493.338440 996.046692,663.132019 
	C996.047546,667.371399 996.056458,670.131409 990.194946,670.128540 
	C691.431458,669.981750 392.667938,669.998962 93.904404,669.996460 
	C93.238243,669.996460 92.572090,669.966003 91.612869,669.590088 
	C103.818352,657.035339 116.347580,644.871521 128.808517,632.638245 
	C149.586212,612.240173 170.356430,591.834290 191.064560,571.365662 
	C226.573105,536.267883 261.994537,501.081879 297.533844,466.015381 
	C307.825012,455.861084 318.393799,445.988159 328.913330,436.450073 
	C328.998779,488.225433 328.995697,539.536987 329.018188,590.848511 
	C329.029297,616.214050 346.688416,633.898010 372.047058,633.901245 
	C484.999542,633.915405 597.953308,633.623108 710.903564,634.124695 
	C736.347961,634.237610 755.468079,614.311096 755.244629,589.886658 
	C754.744873,535.253967 755.370605,480.611725 755.390564,425.973328 
	C755.409973,372.997528 755.301819,320.021362 755.011353,267.046661 
	C754.995056,264.068542 753.589661,260.331116 751.521606,258.245209 
	C715.396729,221.809601 679.006775,185.636917 642.857849,149.225021 
	C638.282043,144.615982 633.753357,141.098495 627.109741,141.647797 
	C638.839966,129.652008 650.403625,117.943192 661.967285,106.234375 
z"/>
<path fill="#41CCFD" opacity="1.000000" stroke="none" 
	d="
M328.835297,435.986267 
	C318.393799,445.988159 307.825012,455.861084 297.533844,466.015381 
	C261.994537,501.081879 226.573105,536.267883 191.064560,571.365662 
	C170.356430,591.834290 149.586212,612.240173 128.808517,632.638245 
	C116.347580,644.871521 103.818352,657.035339 91.149734,669.505249 
	C89.505020,669.848755 88.030380,669.917358 85.941200,670.014465 
	C85.941200,665.945923 85.940956,662.147522 85.941238,658.349060 
	C85.953842,491.244293 85.971169,324.139526 85.974525,157.034760 
	C85.975090,128.884598 108.292870,105.910645 135.742645,105.914452 
	C309.345398,105.938553 482.948151,105.971062 656.550903,106.002815 
	C658.050110,106.003090 659.549377,106.031143 661.507935,106.140297 
	C650.403625,117.943192 638.839966,129.652008 626.653442,141.730362 
	C541.728943,142.102707 457.424896,142.465225 373.127167,141.891953 
	C347.398956,141.716995 328.630737,161.953964 328.800385,186.092804 
	C329.370636,267.225067 329.018555,348.363831 329.009521,429.500092 
	C329.009277,431.662140 328.895905,433.824188 328.835297,435.986267 
z"/>
<path fill="#F1F1F1" opacity="1.000000" stroke="none" 
	d="
M96.613068,745.805725 
	C96.222008,745.314331 95.830948,744.822998 95.315567,743.687500 
	C94.916603,742.090454 94.802361,741.050964 94.342270,740.198059 
	C90.146263,732.419617 87.692719,724.265503 87.849503,715.293091 
	C87.961647,708.875366 87.407990,702.446045 87.151405,696.021851 
	C87.100189,695.263184 87.048981,694.504578 87.261810,693.230408 
	C87.751434,692.054199 87.977005,691.393494 88.202583,690.732788 
	C88.559570,690.649536 88.916550,690.566223 89.771317,690.847717 
	C92.244598,691.362366 94.220085,691.643433 96.195580,691.643555 
	C392.807495,691.663025 689.419434,691.664246 986.031372,691.619629 
	C988.078430,691.619324 990.125305,690.974854 992.172302,690.631226 
	C992.538025,690.585754 992.903809,690.540222 993.571167,690.938843 
	C993.941467,698.992493 993.821167,706.609680 994.127380,714.209717 
	C994.500854,723.479919 992.078552,731.951721 987.790283,740.042664 
	C987.205322,741.146362 987.193542,742.553711 986.916382,743.820496 
	C986.552795,744.326599 986.189087,744.832703 985.294495,745.602478 
	C984.238403,746.662415 983.713257,747.458679 983.188049,748.254883 
	C981.162231,750.319824 979.136475,752.384766 976.482849,754.664795 
	C971.843140,757.420105 967.831299,759.960327 963.819519,762.500549 
	C963.819519,762.500549 963.481323,762.865662 963.029358,762.676880 
	C961.331543,762.888855 960.085754,763.289734 958.839905,763.690552 
	C958.839905,763.690552 958.766541,763.852661 958.393188,763.713745 
	C955.697693,764.256775 953.375671,764.938721 951.053589,765.620667 
	C949.391479,765.682922 947.729309,765.799805 946.067200,765.799866 
	C675.998352,765.807922 405.929504,765.807617 135.860672,765.805725 
	C134.528000,765.805725 133.195343,765.779602 131.205032,765.449097 
	C128.164780,764.677490 125.782173,764.222412 123.399567,763.767334 
	C123.399567,763.767334 123.241219,763.855286 123.121002,763.467407 
	C121.669296,763.039551 120.337814,762.999573 119.006325,762.959595 
	C119.006325,762.959656 118.522812,762.868103 118.358635,762.338379 
	C112.689835,757.941406 107.152451,754.119507 101.699059,750.181335 
	C99.892570,748.876709 98.302231,747.272827 96.613068,745.805725 
M564.095764,737.556641 
	C565.805725,733.337341 568.547485,729.234863 569.040466,724.877869 
	C570.829346,709.066040 551.556580,694.896790 537.352539,701.757446 
	C525.136719,707.657898 517.380920,722.123169 525.509216,734.962463 
	C534.468567,749.114624 551.601562,751.688049 564.095764,737.556641 
z"/>
<path fill="#F0F0F0" opacity="1.000000" stroke="none" 
	d="
M698.564758,879.339417 
	C698.912659,879.452942 699.260498,879.566467 699.816589,880.268982 
	C700.881104,880.997437 701.737427,881.136902 702.593750,881.276367 
	C705.830444,883.790771 709.067200,886.305176 712.310730,889.471436 
	C712.931763,890.715027 713.546021,891.306702 714.160400,891.898376 
	C714.797974,893.262756 715.435608,894.627136 716.053223,896.663696 
	C716.422180,898.234253 716.811096,899.132690 717.200012,900.031128 
	C718.169067,913.959106 718.169067,913.957947 704.553894,913.959290 
	C590.467224,913.970825 476.380585,913.992493 362.294006,913.904907 
	C360.529724,913.903503 358.766479,912.555237 357.512817,911.328003 
	C359.010223,905.474609 359.926697,900.114136 361.021240,894.790344 
	C361.435699,892.774353 362.260956,890.842773 362.898987,888.872742 
	C362.898987,888.872742 362.983063,888.972656 363.276123,888.934753 
	C364.009949,888.193176 364.450684,887.489502 364.891388,886.785828 
	C367.158264,884.940491 369.425171,883.095215 372.370667,881.435425 
	C373.713318,881.113037 374.377380,880.605103 375.041473,880.097168 
	C375.320068,879.861450 375.598663,879.625732 376.526184,879.596191 
	C377.456055,879.886414 377.737000,879.970398 378.117432,880.441162 
	C380.229980,881.218628 382.242859,881.950073 384.256134,881.951172 
	C486.348633,882.006775 588.441162,882.000305 690.533691,881.997620 
	C692.031799,881.997559 693.572266,882.161621 695.010620,881.858398 
	C695.760010,881.700378 696.329285,880.687988 697.401123,879.935791 
	C698.069702,879.653198 698.317200,879.496338 698.564758,879.339417 
z"/>
<path fill="#AAAAAA" opacity="1.000000" stroke="none" 
	d="
M991.723633,690.451477 
	C990.125305,690.974854 988.078430,691.619324 986.031372,691.619629 
	C689.419434,691.664246 392.807495,691.663025 96.195580,691.643555 
	C94.220085,691.643433 92.244598,691.362366 90.042419,690.921448 
	C91.457664,690.481750 93.099571,690.202881 94.741501,690.202820 
	C392.420807,690.183716 690.100098,690.184448 987.779419,690.188171 
	C988.944580,690.188171 990.109802,690.242676 991.723633,690.451477 
z"/>
<path fill="#BED9E7" opacity="1.000000" stroke="none" 
	d="
M609.239136,840.994995 
	C609.241882,845.488831 609.030334,849.499268 609.312927,853.474609 
	C609.555481,856.886597 608.260010,857.659485 605.028564,857.635376 
	C585.885925,857.492065 566.741638,857.560364 547.597900,857.560303 
	C524.126038,857.560181 500.653717,857.494202 477.182709,857.639587 
	C473.709198,857.661072 472.637848,856.792358 472.668793,853.190552 
	C472.846191,832.550110 472.848969,811.906616 472.670227,791.266174 
	C472.638641,787.620422 473.797180,786.853943 477.221497,786.862793 
	C519.670349,786.972473 562.119751,786.982605 604.568542,786.851624 
	C608.284180,786.840149 609.386719,787.741028 609.335205,791.556335 
	C609.114990,807.867126 609.240051,824.182617 609.239136,840.994995 
M475.997559,844.456665 
	C475.997559,845.289917 475.997101,846.123169 475.997589,846.956421 
	C476.001678,853.996887 476.001770,853.999451 482.970703,853.999573 
	C522.132507,854.000427 561.294617,853.933044 600.455750,854.094177 
	C604.811096,854.112122 606.169800,853.004456 606.106384,848.527588 
	C605.853821,830.700012 605.899658,812.865784 606.082397,795.036499 
	C606.122498,791.129272 605.026794,789.900452 601.021851,789.914246 
	C561.027283,790.051636 521.031860,790.046326 481.037262,789.920654 
	C477.134918,789.908386 475.858337,790.966187 475.910614,794.977783 
	C476.121155,811.139709 475.997650,827.305908 475.997559,844.456665 
z"/>
<path fill="#AFAFAF" opacity="1.000000" stroke="none" 
	d="
M698.299072,879.046997 
	C698.317200,879.496338 698.069702,879.653198 696.937866,879.871094 
	C694.888916,879.906494 693.724365,879.858398 692.559753,879.858337 
	C589.206848,879.852478 485.853912,879.849487 382.501007,879.856567 
	C381.006653,879.856628 379.512268,879.985596 378.017914,880.054382 
	C377.737000,879.970398 377.456055,879.886414 376.804291,879.565796 
	C378.003082,879.017578 379.572662,878.433838 381.142426,878.433228 
	C485.451813,878.393311 589.761169,878.398987 694.070557,878.417847 
	C695.391479,878.418091 696.712402,878.637512 698.299072,879.046997 
z"/>
<path fill="#AAAAAA" opacity="1.000000" stroke="none" 
	d="
M987.244568,743.777344 
	C987.193542,742.553711 987.205322,741.146362 987.790283,740.042664 
	C992.078552,731.951721 994.500854,723.479919 994.127380,714.209717 
	C993.821167,706.609680 993.941467,698.992493 993.825806,691.053589 
	C994.302734,691.857117 995.268005,692.984924 995.281067,694.123657 
	C995.389832,703.614319 996.298706,713.243408 994.996765,722.555359 
	C993.981262,729.818970 990.151794,736.689209 987.244568,743.777344 
z"/>
<path fill="#AAAAAA" opacity="1.000000" stroke="none" 
	d="
M86.949493,696.372070 
	C87.407990,702.446045 87.961647,708.875366 87.849503,715.293091 
	C87.692719,724.265503 90.146263,732.419617 94.342270,740.198059 
	C94.802361,741.050964 94.916603,742.090454 95.141403,743.425293 
	C89.851791,736.911865 86.786880,729.202454 86.691277,720.485901 
	C86.604408,712.565796 86.720787,704.643555 86.949493,696.372070 
z"/>
<path fill="#AAAAAA" opacity="1.000000" stroke="none" 
	d="
M96.603394,746.123169 
	C98.302231,747.272827 99.892570,748.876709 101.699059,750.181335 
	C107.152451,754.119507 112.689835,757.941406 118.191521,762.157776 
	C108.858170,760.017334 102.527710,753.495422 96.603394,746.123169 
z"/>
<path fill="#CDCDCD" opacity="1.000000" stroke="none" 
	d="
M362.585327,888.992554 
	C362.260956,890.842773 361.435699,892.774353 361.021240,894.790344 
	C359.926697,900.114136 359.010223,905.474609 357.652771,910.936035 
	C357.100098,903.318909 356.916229,895.585876 362.585327,888.992554 
z"/>
<path fill="#AAAAAA" opacity="1.000000" stroke="none" 
	d="
M964.184509,762.526978 
	C967.831299,759.960327 971.843140,757.420105 976.195618,754.851074 
	C972.540649,757.399292 968.545105,759.976318 964.184509,762.526978 
z"/>
<path fill="#AAAAAA" opacity="1.000000" stroke="none" 
	d="
M123.444107,764.080688 
	C125.782173,764.222412 128.164780,764.677490 130.742249,765.376526 
	C128.454285,765.211731 125.971466,764.802917 123.444107,764.080688 
z"/>
<path fill="#AAAAAA" opacity="1.000000" stroke="none" 
	d="
M951.323914,765.821838 
	C953.375671,764.938721 955.697693,764.256775 958.316223,763.669006 
	C956.273193,764.516479 953.933716,765.269775 951.323914,765.821838 
z"/>
<path fill="#AAAAAA" opacity="1.000000" stroke="none" 
	d="
M959.194824,763.822632 
	C960.085754,763.289734 961.331543,762.888855 962.785034,762.724060 
	C961.845032,763.291565 960.697327,763.623108 959.194824,763.822632 
z"/>
<path fill="#AAAAAA" opacity="1.000000" stroke="none" 
	d="
M119.242249,763.248596 
	C120.337814,762.999573 121.669296,763.039551 123.082230,763.385559 
	C121.935173,763.640259 120.706680,763.588928 119.242249,763.248596 
z"/>
<path fill="#AAAAAA" opacity="1.000000" stroke="none" 
	d="
M983.490112,748.196472 
	C983.713257,747.458679 984.238403,746.662415 985.081177,745.829956 
	C984.863281,746.575195 984.327759,747.356628 983.490112,748.196472 
z"/>
<path fill="#AAAAAA" opacity="1.000000" stroke="none" 
	d="
M87.968399,690.627808 
	C87.977005,691.393494 87.751434,692.054199 87.299782,692.851074 
	C87.293877,692.165771 87.514046,691.344299 87.968399,690.627808 
z"/>
<path fill="#AFAFAF" opacity="1.000000" stroke="none" 
	d="
M717.396362,899.807373 
	C716.811096,899.132690 716.422180,898.234253 716.166931,896.968628 
	C716.731323,897.595459 717.162048,898.589600 717.396362,899.807373 
z"/>
<path fill="#AFAFAF" opacity="1.000000" stroke="none" 
	d="
M374.738586,880.028931 
	C374.377380,880.605103 373.713318,881.113037 372.721405,881.444580 
	C373.074280,880.832336 373.754974,880.396484 374.738586,880.028931 
z"/>
<path fill="#AFAFAF" opacity="1.000000" stroke="none" 
	d="
M702.409729,881.028015 
	C701.737427,881.136902 700.881104,880.997437 699.985962,880.491333 
	C700.706665,880.343079 701.466187,880.561340 702.409729,881.028015 
z"/>
<path fill="#CDCDCD" opacity="1.000000" stroke="none" 
	d="
M364.590973,886.872192 
	C364.450684,887.489502 364.009949,888.193176 363.220459,888.900635 
	C363.344666,888.255798 363.817596,887.607178 364.590973,886.872192 
z"/>
<path fill="#AFAFAF" opacity="1.000000" stroke="none" 
	d="
M714.204956,891.583679 
	C713.546021,891.306702 712.931763,890.715027 712.455872,889.772949 
	C713.145996,890.038086 713.697815,890.653564 714.204956,891.583679 
z"/>
<path fill="#060605" opacity="1.000000" stroke="none" 
	d="
M328.913269,436.450073 
	C328.895905,433.824188 329.009277,431.662140 329.009521,429.500092 
	C329.018555,348.363831 329.370636,267.225067 328.800385,186.092804 
	C328.630737,161.953964 347.398956,141.716995 373.127167,141.891953 
	C457.424896,142.465225 541.728943,142.102707 626.486816,142.017334 
	C633.753357,141.098495 638.282043,144.615982 642.857849,149.225021 
	C679.006775,185.636917 715.396729,221.809601 751.521606,258.245209 
	C753.589661,260.331116 754.995056,264.068542 755.011353,267.046661 
	C755.301819,320.021362 755.409973,372.997528 755.390564,425.973328 
	C755.370605,480.611725 754.744873,535.253967 755.244629,589.886658 
	C755.468079,614.311096 736.347961,634.237610 710.903564,634.124695 
	C597.953308,633.623108 484.999542,633.915405 372.047058,633.901245 
	C346.688416,633.898010 329.029297,616.214050 329.018188,590.848511 
	C328.995697,539.536987 328.998779,488.225433 328.913269,436.450073 
M529.500183,158.627258 
	C477.507446,158.627487 425.514679,158.617355 373.521942,158.633514 
	C355.146576,158.639236 345.557129,168.296265 345.556396,186.758667 
	C345.551208,320.905853 345.550995,455.053070 345.556458,589.200256 
	C345.557220,607.706970 355.123962,617.332764 373.508606,617.319702 
	C440.329712,617.272095 507.150818,617.169189 573.971924,617.167358 
	C619.130127,617.166077 664.288269,617.312805 709.446472,617.366333 
	C729.063965,617.389648 737.958130,608.586914 737.960388,589.173828 
	C737.972595,485.689941 737.972290,382.206085 737.976440,278.722198 
	C737.976501,277.082703 737.976501,275.443237 737.976501,273.321960 
	C735.782776,273.321960 733.995667,273.321960 732.208496,273.321991 
	C710.211670,273.322144 688.214417,273.412140 666.218201,273.296082 
	C646.080811,273.189819 629.940308,260.988770 625.407471,242.255020 
	C624.126404,236.960419 623.466980,231.396515 623.407227,225.946411 
	C623.180542,205.285248 623.316833,184.620087 623.317383,163.956421 
	C623.317383,162.219788 623.317383,160.483154 623.317383,158.627197 
	C591.820557,158.627197 561.160400,158.627197 529.500183,158.627258 
M721.960632,251.591919 
	C695.176025,224.843353 668.391357,198.094788 640.644287,170.385101 
	C640.644287,173.437042 640.641418,175.054520 640.644775,176.671982 
	C640.681580,194.488556 640.774353,212.305252 640.740967,230.121689 
	C640.709717,246.824951 650.585938,256.886902 667.333862,256.929077 
	C685.317688,256.974365 703.301697,256.945679 721.285583,256.930847 
	C722.710022,256.929657 724.134399,256.784576 726.721375,256.642578 
	C724.832947,254.624237 723.652893,253.363022 721.960632,251.591919 
z"/>
<path fill="#070707" opacity="1.000000" stroke="none" 
	d="
M563.874756,737.840698 
	C551.601562,751.688049 534.468567,749.114624 525.509216,734.962463 
	C517.380920,722.123169 525.136719,707.657898 537.352539,701.757446 
	C551.556580,694.896790 570.829346,709.066040 569.040466,724.877869 
	C568.547485,729.234863 565.805725,733.337341 563.874756,737.840698 
z"/>
<path fill="#FDFDFD" opacity="1.000000" stroke="none" 
	d="
M378.117432,880.441162 
	C379.512268,879.985596 381.006653,879.856628 382.501007,879.856567 
	C485.853912,879.849487 589.206848,879.852478 692.559753,879.858337 
	C693.724365,879.858398 694.888916,879.906494 696.516724,879.996826 
	C696.329285,880.687988 695.760010,881.700378 695.010620,881.858398 
	C693.572266,882.161621 692.031799,881.997559 690.533691,881.997620 
	C588.441162,882.000305 486.348633,882.006775 384.256134,881.951172 
	C382.242859,881.950073 380.229980,881.218628 378.117432,880.441162 
z"/>
<path fill="#BFDAEA" opacity="1.000000" stroke="none" 
	d="
M475.997559,843.963623 
	C475.997650,827.305908 476.121155,811.139709 475.910614,794.977783 
	C475.858337,790.966187 477.134918,789.908386 481.037262,789.920654 
	C521.031860,790.046326 561.027283,790.051636 601.021851,789.914246 
	C605.026794,789.900452 606.122498,791.129272 606.082397,795.036499 
	C605.899658,812.865784 605.853821,830.700012 606.106384,848.527588 
	C606.169800,853.004456 604.811096,854.112122 600.455750,854.094177 
	C561.294617,853.933044 522.132507,854.000427 482.970703,853.999573 
	C476.001770,853.999451 476.001678,853.996887 475.997589,846.956421 
	C475.997101,846.123169 475.997559,845.289917 475.997559,843.963623 
z"/>
<path fill="#D8D7D6" opacity="1.000000" stroke="none" 
	d="
M530.000244,158.627228 
	C561.160400,158.627197 591.820557,158.627197 623.317383,158.627197 
	C623.317383,160.483154 623.317383,162.219788 623.317383,163.956421 
	C623.316833,184.620087 623.180542,205.285248 623.407227,225.946411 
	C623.466980,231.396515 624.126404,236.960419 625.407471,242.255020 
	C629.940308,260.988770 646.080811,273.189819 666.218201,273.296082 
	C688.214417,273.412140 710.211670,273.322144 732.208496,273.321991 
	C733.995667,273.321960 735.782776,273.321960 737.976501,273.321960 
	C737.976501,275.443237 737.976501,277.082703 737.976440,278.722198 
	C737.972290,382.206085 737.972595,485.689941 737.960388,589.173828 
	C737.958130,608.586914 729.063965,617.389648 709.446472,617.366333 
	C664.288269,617.312805 619.130127,617.166077 573.971924,617.167358 
	C507.150818,617.169189 440.329712,617.272095 373.508606,617.319702 
	C355.123962,617.332764 345.557220,607.706970 345.556458,589.200256 
	C345.550995,455.053070 345.551208,320.905853 345.556396,186.758667 
	C345.557129,168.296265 355.146576,158.639236 373.521942,158.633514 
	C425.514679,158.617355 477.507446,158.627487 530.000244,158.627228 
M422.704834,516.999146 
	C426.339417,511.316833 429.973969,505.634521 434.313141,498.850616 
	C430.488403,498.527985 427.117950,497.159363 425.412079,498.293762 
	C419.143097,502.462769 413.675781,502.090637 408.600311,497.297333 
	C405.956848,498.244720 403.680664,499.060486 400.599854,500.164612 
	C404.862488,506.068237 408.984894,511.777649 413.148956,518.102539 
	C414.562988,520.313843 415.977051,522.525085 417.760834,525.314514 
	C419.484314,522.128052 420.782867,519.727234 422.704834,516.999146 
M489.934662,462.327179 
	C484.975525,479.207031 480.016388,496.086853 474.950165,513.331177 
	C480.247681,515.105896 485.230560,516.775208 490.705383,518.609375 
	C513.492493,440.870026 536.154968,363.555847 558.893982,285.980560 
	C553.209167,284.367432 548.180054,282.940369 542.935974,281.452332 
	C525.211426,341.880219 507.662354,401.710083 489.934662,462.327179 
M424.174774,427.500000 
	C424.174774,391.061829 424.174774,354.623627 424.174774,317.985748 
	C419.126373,317.985748 414.735229,317.985748 410.067810,317.985748 
	C409.966553,319.754822 409.810211,321.215454 409.809875,322.676117 
	C409.797058,377.337402 409.783508,431.998749 409.856354,486.659912 
	C409.859100,488.735046 410.059906,491.486755 411.333496,492.720459 
	C413.124176,494.455109 416.129700,496.105469 418.385406,495.839386 
	C420.377502,495.604401 422.387024,492.916840 423.743378,490.881958 
	C424.539948,489.686859 424.164154,487.651764 424.165863,485.994354 
	C424.185822,466.829559 424.177094,447.664795 424.174774,427.500000 
M607.484192,353.871124 
	C616.406494,350.979614 625.328796,348.088104 634.884216,344.991394 
	C634.884216,342.186157 634.884216,338.377289 634.884216,334.568420 
	C634.884216,330.841492 634.884216,327.114563 634.884216,323.360809 
	C583.298035,326.196625 546.552246,368.356354 550.387146,417.342499 
	C554.261780,466.836090 595.769409,497.343201 634.597229,497.273132 
	C634.597229,489.703094 634.597229,482.131195 634.597229,474.289429 
	C631.651550,473.859070 628.880676,473.486572 626.120667,473.045990 
	C595.540527,468.164886 571.949585,439.871735 573.263550,409.099213 
	C574.303345,384.746307 585.550842,366.343201 607.484192,353.871124 
M699.749695,471.252594 
	C712.411926,458.169434 721.035828,442.535889 723.349915,424.720703 
	C727.894348,389.734863 716.129822,360.749298 687.367981,339.511902 
	C673.485168,329.261017 657.490967,324.678711 639.734619,323.216309 
	C639.734619,329.854279 639.912354,336.138428 639.664307,342.405731 
	C639.527527,345.861481 640.745544,346.821106 644.129456,347.170837 
	C672.119568,350.064087 698.679321,372.596710 700.544128,407.446960 
	C702.018005,434.991119 684.976562,461.790405 656.586914,470.824127 
	C651.264343,472.517792 645.660400,473.327148 640.073547,474.569733 
	C640.073547,482.177979 640.073547,489.748657 640.073547,497.752716 
	C663.354065,496.449280 682.940369,487.866669 699.749695,471.252594 
M406.148804,324.563904 
	C406.148804,322.445160 406.148804,320.326447 406.148804,317.992279 
	C403.517761,317.992279 401.477905,317.992279 399.001007,317.992279 
	C399.001007,319.628723 399.001038,320.929901 399.001038,322.231079 
	C399.001007,377.370819 399.000885,432.510590 399.001221,487.650330 
	C399.001221,488.316650 398.747925,489.156525 399.057068,489.617371 
	C400.053711,491.103088 401.258423,492.449188 402.382904,493.849152 
	C403.638092,492.390045 405.059631,491.035461 406.072479,489.424011 
	C406.522949,488.707336 406.149933,487.472778 406.149933,486.473267 
	C406.149628,432.832794 406.149323,379.192291 406.148804,324.563904 
M427.832520,337.500336 
	C427.837250,386.955994 427.839874,436.411621 427.855591,485.867279 
	C427.856110,487.526276 427.529266,489.408844 428.195587,490.778076 
	C428.800110,492.020264 430.498901,493.316315 431.818085,493.433838 
	C432.825897,493.523560 434.352570,492.004120 434.985260,490.840027 
	C435.556976,489.788177 435.290100,488.247711 435.290222,486.922729 
	C435.295837,432.305054 435.291962,377.687378 435.274902,323.069702 
	C435.274414,321.452362 435.119965,319.835052 435.023376,317.945526 
	C432.594635,317.945526 430.529144,317.945526 427.832336,317.945526 
	C427.832336,324.276062 427.832336,330.388275 427.832520,337.500336 
M416.512695,295.946472 
	C413.360657,296.033844 410.090302,295.611542 407.080292,296.310486 
	C399.949799,297.966248 397.679474,303.589417 399.630219,313.725647 
	C411.328430,313.725647 423.052734,313.725647 434.723267,313.725647 
	C436.738098,301.959503 433.268188,296.325775 423.973022,295.957886 
	C421.813049,295.872406 419.646851,295.944946 416.512695,295.946472 
z"/>
<path fill="#767575" opacity="1.000000" stroke="none" 
	d="
M722.216736,251.846863 
	C723.652893,253.363022 724.832947,254.624237 726.721375,256.642578 
	C724.134399,256.784576 722.710022,256.929657 721.285583,256.930847 
	C703.301697,256.945679 685.317688,256.974365 667.333862,256.929077 
	C650.585938,256.886902 640.709717,246.824951 640.740967,230.121689 
	C640.774353,212.305252 640.681580,194.488556 640.644775,176.671982 
	C640.641418,175.054520 640.644287,173.437042 640.644287,170.385101 
	C668.391357,198.094788 695.176025,224.843353 722.216736,251.846863 
z"/>
<path fill="#050505" opacity="1.000000" stroke="none" 
	d="
M490.023926,461.933563 
	C507.662354,401.710083 525.211426,341.880219 542.935974,281.452332 
	C548.180054,282.940369 553.209167,284.367432 558.893982,285.980560 
	C536.154968,363.555847 513.492493,440.870026 490.705383,518.609375 
	C485.230560,516.775208 480.247681,515.105896 474.950165,513.331177 
	C480.016388,496.086853 484.975525,479.207031 490.023926,461.933563 
z"/>
<path fill="#FFCC00" opacity="1.000000" stroke="none" 
	d="
M424.175354,428.000000 
	C424.177094,447.664795 424.185822,466.829559 424.165863,485.994354 
	C424.164154,487.651764 424.539948,489.686859 423.743378,490.881958 
	C422.387024,492.916840 420.377502,495.604401 418.385406,495.839386 
	C416.129700,496.105469 413.124176,494.455109 411.333496,492.720459 
	C410.059906,491.486755 409.859100,488.735046 409.856354,486.659912 
	C409.783508,431.998749 409.797058,377.337402 409.809875,322.676117 
	C409.810211,321.215454 409.966553,319.754822 410.067810,317.985748 
	C414.735229,317.985748 419.126373,317.985748 424.174774,317.985748 
	C424.174774,354.623627 424.174774,391.061829 424.175354,428.000000 
z"/>
<path fill="#CE3939" opacity="1.000000" stroke="none" 
	d="
M607.162231,354.052582 
	C585.550842,366.343201 574.303345,384.746307 573.263550,409.099213 
	C571.949585,439.871735 595.540527,468.164886 626.120667,473.045990 
	C628.880676,473.486572 631.651550,473.859070 634.597229,474.289429 
	C634.597229,482.131195 634.597229,489.703094 634.597229,497.273132 
	C595.769409,497.343201 554.261780,466.836090 550.387146,417.342499 
	C546.552246,368.356354 583.298035,326.196625 634.884216,323.360809 
	C634.884216,327.114563 634.884216,330.841492 634.884216,334.568420 
	C634.884216,338.377289 634.884216,342.186157 634.884216,344.991394 
	C625.328796,348.088104 616.406494,350.979614 607.162231,354.052582 
M570.054260,424.240326 
	C569.695068,419.452362 569.125061,414.669403 569.010681,409.875580 
	C568.245544,377.803711 593.351562,347.376312 626.925903,342.890137 
	C628.604919,342.665802 631.427551,341.700500 631.552063,340.785400 
	C632.036560,337.226227 632.210205,333.380066 631.210449,330.024841 
	C630.939270,329.114777 625.883179,328.746857 623.465759,329.517731 
	C614.510498,332.373291 605.169006,334.762756 597.006226,339.220093 
	C571.453125,353.173401 557.584167,375.639557 555.247925,404.265900 
	C552.812744,434.103455 564.657288,458.427887 588.325073,476.717651 
	C600.945435,486.470245 615.474670,491.499786 631.992920,492.679626 
	C631.992920,489.122864 631.781311,485.980286 632.048157,482.878906 
	C632.359863,479.256287 631.194580,477.847137 627.372742,477.845612 
	C624.462585,477.844452 621.490417,476.889618 618.652771,476.012787 
	C593.007507,468.088684 576.983337,450.965515 570.054260,424.240326 
z"/>
<path fill="#3442D2" opacity="1.000000" stroke="none" 
	d="
M699.502075,471.502197 
	C682.940369,487.866669 663.354065,496.449280 640.073547,497.752716 
	C640.073547,489.748657 640.073547,482.177979 640.073547,474.569733 
	C645.660400,473.327148 651.264343,472.517792 656.586914,470.824127 
	C684.976562,461.790405 702.018005,434.991119 700.544128,407.446960 
	C698.679321,372.596710 672.119568,350.064087 644.129456,347.170837 
	C640.745544,346.821106 639.527527,345.861481 639.664307,342.405731 
	C639.912354,336.138428 639.734619,329.854279 639.734619,323.216309 
	C657.490967,324.678711 673.485168,329.261017 687.367981,339.511902 
	C716.129822,360.749298 727.894348,389.734863 723.349915,424.720703 
	C721.035828,442.535889 712.411926,458.169434 699.502075,471.502197 
M699.534607,357.002716 
	C686.950012,342.930267 671.721252,333.436707 652.975098,329.926819 
	C640.820679,327.651093 643.091980,328.856934 643.096375,339.309967 
	C643.096863,340.516998 644.938599,342.628143 646.137695,342.793884 
	C663.932739,345.253662 678.592346,353.235779 689.773254,367.297241 
	C705.637146,387.248169 709.636475,409.706970 701.002380,433.453400 
	C691.847229,458.632874 673.005432,473.196350 646.633057,478.038574 
	C645.322266,478.279205 643.237854,479.449097 643.153320,480.341461 
	C642.774109,484.348694 642.988159,488.412109 642.988159,493.004974 
	C676.670776,488.646881 700.952332,472.279053 713.296326,441.622284 
	C725.392944,411.580078 720.689331,382.990173 699.534607,357.002716 
z"/>
<path fill="#FFCC00" opacity="1.000000" stroke="none" 
	d="
M406.148895,325.057861 
	C406.149323,379.192291 406.149628,432.832794 406.149933,486.473267 
	C406.149933,487.472778 406.522949,488.707336 406.072479,489.424011 
	C405.059631,491.035461 403.638092,492.390045 402.382904,493.849152 
	C401.258423,492.449188 400.053711,491.103088 399.057068,489.617371 
	C398.747925,489.156525 399.001221,488.316650 399.001221,487.650330 
	C399.000885,432.510590 399.001007,377.370819 399.001038,322.231079 
	C399.001038,320.929901 399.001007,319.628723 399.001007,317.992279 
	C401.477905,317.992279 403.517761,317.992279 406.148804,317.992279 
	C406.148804,320.326447 406.148804,322.445160 406.148895,325.057861 
z"/>
<path fill="#FFCC00" opacity="1.000000" stroke="none" 
	d="
M427.832428,337.000427 
	C427.832336,330.388275 427.832336,324.276062 427.832336,317.945526 
	C430.529144,317.945526 432.594635,317.945526 435.023376,317.945526 
	C435.119965,319.835052 435.274414,321.452362 435.274902,323.069702 
	C435.291962,377.687378 435.295837,432.305054 435.290222,486.922729 
	C435.290100,488.247711 435.556976,489.788177 434.985260,490.840027 
	C434.352570,492.004120 432.825897,493.523560 431.818085,493.433838 
	C430.498901,493.316315 428.800110,492.020264 428.195587,490.778076 
	C427.529266,489.408844 427.856110,487.526276 427.855591,485.867279 
	C427.839874,436.411621 427.837250,386.955994 427.832428,337.000427 
z"/>
<path fill="#F93B3B" opacity="1.000000" stroke="none" 
	d="
M416.998108,295.945618 
	C419.646851,295.944946 421.813049,295.872406 423.973022,295.957886 
	C433.268188,296.325775 436.738098,301.959503 434.723267,313.725647 
	C423.052734,313.725647 411.328430,313.725647 399.630219,313.725647 
	C397.679474,303.589417 399.949799,297.966248 407.080292,296.310486 
	C410.090302,295.611542 413.360657,296.033844 416.998108,295.945618 
z"/>
<path fill="#C08346" opacity="1.000000" stroke="none" 
	d="
M413.107300,517.487061 
	C408.984894,511.777649 404.862488,506.068237 400.599854,500.164612 
	C403.680664,499.060486 405.956848,498.244720 408.600311,497.297333 
	C413.675781,502.090637 419.143097,502.462769 425.412079,498.293762 
	C427.117950,497.159363 430.488403,498.527985 434.313141,498.850616 
	C429.973969,505.634521 426.339417,511.316833 422.013672,517.040405 
	C418.584106,517.216797 415.845734,517.351929 413.107300,517.487061 
z"/>
<path fill="#181411" opacity="1.000000" stroke="none" 
	d="
M413.128143,517.794800 
	C415.845734,517.351929 418.584106,517.216797 421.701965,517.203979 
	C420.782867,519.727234 419.484314,522.128052 417.760834,525.314514 
	C415.977051,522.525085 414.562988,520.313843 413.128143,517.794800 
z"/>
<path fill="#FA4B4B" opacity="1.000000" stroke="none" 
	d="
M570.125732,424.658752 
	C576.983337,450.965515 593.007507,468.088684 618.652771,476.012787 
	C621.490417,476.889618 624.462585,477.844452 627.372742,477.845612 
	C631.194580,477.847137 632.359863,479.256287 632.048157,482.878906 
	C631.781311,485.980286 631.992920,489.122864 631.992920,492.679626 
	C615.474670,491.499786 600.945435,486.470245 588.325073,476.717651 
	C564.657288,458.427887 552.812744,434.103455 555.247925,404.265900 
	C557.584167,375.639557 571.453125,353.173401 597.006226,339.220093 
	C605.169006,334.762756 614.510498,332.373291 623.465759,329.517731 
	C625.883179,328.746857 630.939270,329.114777 631.210449,330.024841 
	C632.210205,333.380066 632.036560,337.226227 631.552063,340.785400 
	C631.427551,341.700500 628.604919,342.665802 626.925903,342.890137 
	C593.351562,347.376312 568.245544,377.803711 569.010681,409.875580 
	C569.125061,414.669403 569.695068,419.452362 570.125732,424.658752 
z"/>
<path fill="#5665F9" opacity="1.000000" stroke="none" 
	d="
M699.782349,357.257751 
	C720.689331,382.990173 725.392944,411.580078 713.296326,441.622284 
	C700.952332,472.279053 676.670776,488.646881 642.988159,493.004974 
	C642.988159,488.412109 642.774109,484.348694 643.153320,480.341461 
	C643.237854,479.449097 645.322266,478.279205 646.633057,478.038574 
	C673.005432,473.196350 691.847229,458.632874 701.002380,433.453400 
	C709.636475,409.706970 705.637146,387.248169 689.773254,367.297241 
	C678.592346,353.235779 663.932739,345.253662 646.137695,342.793884 
	C644.938599,342.628143 643.096863,340.516998 643.096375,339.309967 
	C643.091980,328.856934 640.820679,327.651093 652.975098,329.926819 
	C671.721252,333.436707 686.950012,342.930267 699.782349,357.257751 
z"/>
</svg>